<svg width="22" height="14" viewBox="0 0 22 14" fill="none" xmlns="http://www.w3.org/2000/svg">
<path d="M21.0476 6.04763H3.25135L7.4978 1.80091C7.86982 1.42911 7.86982 0.825985 7.4978 0.454244C7.12578 0.0822279 6.52266 0.0822279 6.15119 0.454244L0.279012 6.32654C-0.0930041 6.69833 -0.0930041 7.30151 0.279012 7.6732L6.15119 13.5458C6.33715 13.7318 6.58085 13.8247 6.8245 13.8247C7.06814 13.8247 7.31185 13.7318 7.4978 13.5458C7.86982 13.174 7.86982 12.5708 7.4978 12.1992L3.25135 7.95221H21.0476C21.5735 7.95221 22 7.5258 22 6.99989C22 6.47399 21.5736 6.04763 21.0476 6.04763Z" fill="#FFFFFF"/>
</svg>
